<?xml version="1.0" standalone="no"?>
<!DOCTYPE svg PUBLIC "-//W3C//DTD SVG 20010904//EN"
 "http://www.w3.org/TR/2001/REC-SVG-20010904/DTD/svg10.dtd">
<svg version="1.0" xmlns="http://www.w3.org/2000/svg"
 width="700.000000pt" height="700.000000pt" viewBox="0 0 700.000000 700.000000"
 preserveAspectRatio="xMidYMid meet">
<metadata>
Created by potrace 1.11, written by Peter Selinger 2001-2013
</metadata>
<g transform="translate(0.000000,700.000000) scale(0.100000,-0.100000)"
fill="#000000" stroke="none">
<path d="M4543 6349 c-22 -7 -174 -151 -543 -517 -282 -279 -515 -506 -518
-504 -4 2 -133 128 -287 281 -154 153 -290 283 -303 290 -54 28 -153 10 -194
-36 -23 -25 -48 -87 -48 -118 0 -50 33 -91 228 -287 108 -109 195 -199 192
-199 -3 -1 -439 -2 -970 -4 -1046 -2 -1023 0 -1132 -56 -155 -78 -283 -250
-304 -406 -10 -69 -11 -2807 -2 -2873 19 -130 83 -248 185 -339 114 -101 207
-133 400 -136 73 -1 136 -5 140 -8 3 -4 7 -18 9 -31 4 -43 35 -96 77 -131 122
-105 324 -35 353 121 4 22 10 41 14 44 5 3 750 5 1656 5 1434 -1 1648 -3 1655
-15 4 -8 12 -33 18 -56 14 -54 82 -121 141 -138 132 -40 260 36 288 170 l8 37
134 2 c144 2 231 19 298 57 167 93 265 225 298 398 12 65 10 2836 -2 2910 -23
132 -118 274 -237 354 -30 19 -90 47 -133 62 l-79 27 -990 2 c-544 2 -992 3
-994 4 -3 0 182 187 410 414 229 226 423 423 432 437 9 15 19 46 21 70 10 115
-103 201 -221 169z m-393 -1333 c301 -12 400 -17 446 -21 27 -2 99 -7 159 -10
207 -10 270 -23 385 -78 188 -91 299 -261 353 -542 16 -82 22 -141 43 -425 17
-225 10 -1056 -11 -1315 -2 -22 -6 -76 -10 -120 -16 -202 -77 -410 -155 -525
-78 -115 -221 -214 -340 -235 -18 -3 -36 -7 -39 -9 -6 -4 -57 -11 -143 -21
-24 -2 -95 -7 -158 -10 -63 -3 -144 -8 -180 -10 -36 -2 -141 -7 -235 -10 -93
-3 -242 -8 -330 -11 -194 -6 -1098 -6 -1320 0 -88 3 -252 7 -365 10 -425 12
-643 27 -770 51 -14 3 -35 7 -46 9 -44 9 -121 38 -184 72 -126 66 -219 185
-271 346 -31 96 -57 215 -63 290 -3 38 -8 96 -11 131 -37 427 -37 1155 -1
1533 3 32 8 90 12 127 3 37 7 78 10 90 12 67 18 89 41 167 85 287 270 445 553
475 63 6 187 15 310 21 58 3 134 7 170 9 36 2 187 6 335 10 149 4 272 9 274
11 5 5 1396 -4 1541 -10z m1866 -967 c44 -14 111 -84 127 -133 47 -141 -61
-290 -208 -288 -191 1 -295 218 -173 358 65 74 154 96 254 63z m11 -996 c76
-36 124 -110 125 -197 3 -204 -253 -297 -390 -142 -55 63 -67 160 -29 235 55
107 187 154 294 104z"/>
<path d="M1907 4536 c-86 -26 -170 -78 -222 -139 -48 -56 -98 -165 -121 -264
-11 -48 -13 -305 -3 -358 6 -27 12 -61 13 -75 7 -44 56 -154 91 -202 79 -108
224 -164 410 -159 142 3 249 45 335 131 114 113 164 258 164 480 0 318 -102
507 -313 582 -87 31 -253 33 -354 4z m248 -158 c126 -46 184 -174 190 -420 7
-305 -88 -460 -281 -460 -125 0 -222 77 -259 206 -45 162 -33 433 25 549 38
75 95 125 153 134 18 3 34 7 36 9 7 6 104 -7 136 -18z"/>
<path d="M4485 4233 c-202 -45 -323 -214 -326 -458 -4 -236 86 -386 256 -431
48 -13 218 -13 275 0 25 6 172 57 179 62 2 1 -7 30 -20 63 -15 37 -30 61 -39
61 -8 0 -44 -10 -80 -21 -36 -11 -96 -23 -135 -26 -124 -9 -187 37 -213 155
l-9 40 85 7 c255 21 427 154 421 324 -3 79 -26 129 -80 173 -71 57 -196 77
-314 51z m130 -138 c51 -25 74 -84 54 -142 -23 -70 -142 -135 -264 -145 l-40
-3 3 35 c12 135 69 235 147 259 44 14 63 13 100 -4z"/>
<path d="M3151 4229 c-66 -20 -137 -77 -178 -146 l-19 -33 -17 53 c-9 28 -32
68 -49 89 l-33 36 -75 -30 c-89 -37 -86 -34 -72 -51 20 -24 59 -140 67 -197 4
-30 9 -174 11 -320 1 -146 3 -271 3 -277 1 -10 28 -13 101 -13 l100 0 0 238
c1 130 3 255 6 277 6 46 43 132 70 164 64 75 166 85 200 19 22 -43 23 -50 23
-388 l1 -305 92 2 c51 1 96 2 100 2 4 1 8 124 10 274 l3 272 28 57 c39 78 99
128 160 130 54 3 80 -16 98 -69 7 -23 11 -141 12 -349 l0 -314 101 0 101 0 -1
338 c-1 214 -6 352 -13 377 -21 76 -52 118 -110 147 -47 24 -63 27 -130 24
-58 -2 -91 -9 -132 -29 -64 -31 -76 -40 -113 -90 l-29 -38 -17 38 c-22 47 -63
87 -112 107 -41 18 -134 20 -187 5z"/>
<path d="M2374 2841 c-2 -2 -4 -46 -4 -98 0 -67 3 -93 13 -94 6 -1 63 -1 125
-1 l112 1 1 -42 c0 -23 1 -157 2 -297 l2 -255 122 -3 122 -3 0 228 c0 125 0
261 0 301 l1 72 125 0 126 0 -3 97 -3 97 -368 1 c-203 0 -371 -2 -373 -4z"/>
<path d="M3223 2842 c-13 -2 -23 -5 -23 -7 0 -3 203 -542 217 -575 3 -8 23
-58 43 -110 l37 -95 133 0 134 0 16 45 c53 146 104 281 121 317 10 24 19 46
19 49 0 4 30 87 67 186 36 98 64 181 60 184 -9 9 -228 7 -237 -2 -4 -5 -45
-130 -90 -279 -45 -148 -84 -271 -85 -273 -3 -3 -40 110 -142 436 -35 113 -40
122 -63 123 -14 0 -61 1 -105 2 -44 1 -90 1 -102 -1z"/>
</g>
</svg>
