<?xml version="1.0" encoding="iso-8859-1"?><svg width="84" height="56" viewBox="0 0 84 56" xmlns="http://www.w3.org/2000/svg" xmlns:xlink="http://www.w3.org/1999/xlink"><svg viewBox="0 0 28 28" width="28" height="28" id="fb" xmlns="http://www.w3.org/2000/svg"><circle cx="14" cy="14" r="12" fill="#1977f3"/><path d="M17.852 8.965c-.443-.003-.885-.008-1.328.002a3.192 3.192 0 00-.601.07c-.379.083-.603.333-.678.71-.03.152-.048.308-.049.462-.006.566-.002 1.133-.002 1.699 0 .017.002.034.004.06h2.545c.107 0 .109 0 .095.102-.058.445-.118.89-.175 1.336-.048.372-.094.744-.139 1.117-.017.142-.014.143-.156.143h-2.174v6.732l-.002.163h-2.805c.001-.037.004-.074.004-.111v-6.699-.085h-2.233c-.099 0-.099 0-.099-.095 0-.836.001-1.672-.002-2.508 0-.076.023-.095.097-.095.712.003 1.424.002 2.137.002h.1v-.081c.001-.695-.004-1.39.006-2.085.008-.559.116-1.1.36-1.607a2.912 2.912 0 011.557-1.474 3.663 3.663 0 011.475-.28c.583.009 1.166.035 1.749.056.108.004.216.022.325.028.06.003.081.026.08.086-.002.346-.001.692-.001 1.039 0 .408-.002.816.001 1.224.001.068-.02.09-.091.089z" fill="#fff"/></svg><svg viewBox="0 0 28 28" width="28" height="28" id="ig" x="28" xmlns="http://www.w3.org/2000/svg"><radialGradient id="ba" cx="9.364" cy="18.799" r="17.046" gradientUnits="userSpaceOnUse"><stop offset="0" stop-color="#ffd678"/><stop offset=".246" stop-color="#f2a555"/><stop offset=".379" stop-color="#eb5e3e"/><stop offset=".7" stop-color="#c33187"/><stop offset=".954" stop-color="#6765ac"/><stop offset=".985" stop-color="#5c6cb1"/></radialGradient><circle cx="14" cy="14" r="12" fill="url(#ba)"/><path d="M16.989 6.656h-5.978a4.172 4.172 0 00-4.159 4.159v6.37a4.172 4.172 0 004.159 4.159h5.978a4.171 4.171 0 004.159-4.159v-6.37a4.172 4.172 0 00-4.159-4.159zm3.06 10.529c0 .813-.32 1.58-.9 2.16s-1.347.9-2.16.9h-5.978c-.813 0-1.58-.32-2.16-.9-.58-.58-.9-1.347-.9-2.16v-6.37c0-.813.32-1.58.9-2.16.58-.58 1.347-.9 2.16-.9h5.978c.813 0 1.58.32 2.16.9s.9 1.347.9 2.16v6.37z" fill="#fff"/><circle cx="18.022" cy="9.945" r=".932" fill="#fff"/><path d="M14.022 10.007a3.937 3.937 0 100 7.874 3.937 3.937 0 000-7.874zm-.019 6.517a2.578 2.578 0 110-5.155 2.578 2.578 0 010 5.155z" fill="#fff"/></svg><svg viewBox="0 0 28 28" width="28" height="28" id="pi" y="28" xmlns="http://www.w3.org/2000/svg"><circle transform="rotate(-76.325 14 14)" cx="14" cy="14" fill="#e60023" r="12"/><path d="M20.239 16.076c-.388 1.824-1.472 3.506-3.163 4.253-1.144.505-2.664.573-3.692-.224a1.746 1.746 0 01-.478-.548c-.159.823-.403 1.591-.621 2.403a9.16 9.16 0 01-1.614 3.133c-.145.185-.255.105-.272-.008-.172-1.115-.33-2.44-.033-3.732.376-1.632.747-3.279 1.142-4.907-.006-.077-.589-1.298-.089-2.615.704-1.838 2.824-1.71 2.965-.059.076.891-.614 2.595-.799 3.554-.175.908.383 1.538 1.196 1.657.797.117 2.03-.452 2.661-1.681.613-1.193.812-3.011.348-4.32-.561-1.585-2.127-2.476-3.66-2.493-1.88-.022-3.765.85-4.455 3.041-.367 1.212-.097 2.73.498 3.284.204.19.218.194.143.503-.041.171-.24 1.219-.39 1.307-.3.175-1.22-.658-1.473-1.002-.959-1.359-1.05-3.454-.567-4.94.524-1.613 1.703-2.865 3.592-3.583 3.051-1.149 6.924-.339 8.43 2.974.534 1.155.614 2.672.331 4.003z" fill="#fff"/></svg><svg viewBox="0 0 28 28" width="28" height="28" id="tt" x="28" y="28" xmlns="http://www.w3.org/2000/svg"><circle cx="14" cy="14" r="11.96"/><path d="M9.935 16.132c.085-.727.371-1.133.908-1.551.771-.564 1.732-.245 1.732-.245V12.44c.234-.006.467.009.698.044v2.439s-.961-.318-1.732.245c-.537.418-.824.824-.908 1.551-.003.394.067.911.394 1.355a3.015 3.015 0 01-.248-.149c-.715-.502-.847-1.258-.844-1.793zM17.25 8.934a3.356 3.356 0 01-.803-1.647h.666s-.131 1.128.835 2.235l.015.015a3.717 3.717 0 01-.713-.603zM20.46 10.652v2.389s-.85-.035-1.481-.202c-.879-.234-1.443-.593-1.443-.593s-.391-.257-.421-.275v4.937a5 5 0 01-.292 1.534c-.286.748-.73 1.241-.812 1.341 0 0-.54.666-1.49 1.113-.856.403-1.61.394-1.834.403 0 0-1.3.053-2.471-.739a4.893 4.893 0 01-.707-.593l.006.006c1.171.795 2.471.739 2.471.739.225-.009.979 0 1.834-.403.949-.447 1.49-1.113 1.49-1.113.082-.099.526-.593.812-1.341a5 5 0 00.292-1.534v-4.934c.032.018.421.275.421.275s.564.359 1.443.593c.631.167 1.481.202 1.481.202v-1.872c.292.067.54.085.701.067z" fill="#ee1d52"/><path d="M19.759 10.582v1.872s-.85-.035-1.481-.202c-.879-.234-1.443-.593-1.443-.593s-.391-.257-.421-.275v4.937a5 5 0 01-.292 1.534c-.286.748-.73 1.241-.812 1.341 0 0-.54.666-1.49 1.113-.856.403-1.61.394-1.834.403 0 0-1.3.053-2.471-.739l-.006-.006a4.976 4.976 0 01-.348-.394 4.748 4.748 0 01-.66-1.198v-.003c-.093-.277-.286-.949-.26-1.595.047-1.142.432-1.846.535-2.021a4.784 4.784 0 011.037-1.268c.368-.31.786-.558 1.233-.73a4.11 4.11 0 011.531-.321v1.896s-.961-.318-1.732.245c-.537.418-.824.824-.908 1.551-.003.535.129 1.291.847 1.796.085.055.167.105.248.149.126.169.278.318.453.441.704.464 1.291.497 2.045.196.502-.202.879-.654 1.055-1.16.111-.315.108-.631.108-.958V7.287h1.753c.073.429.272 1.043.803 1.647.211.228.451.433.711.602.076.085.47.494.979.748.259.131.537.231.82.298z" fill="#fff"/><path d="M7.803 17.797l.044.126c-.006-.015-.024-.059-.044-.126z" fill="#69c9d0"/><path d="M11.045 12.761c-.45.172-.865.421-1.233.73a4.724 4.724 0 00-1.037 1.271c-.102.175-.488.876-.535 2.021-.026.648.169 1.317.26 1.595v.003a4.8 4.8 0 00.66 1.198c.108.137.225.269.348.394a4.96 4.96 0 01-1.049-.981 4.65 4.65 0 01-.657-1.192v-.006c-.093-.277-.289-.949-.26-1.598.047-1.142.432-1.846.535-2.021a4.74 4.74 0 011.037-1.271c.368-.31.786-.558 1.233-.73a4.28 4.28 0 01.87-.257c.45-.079.908-.085 1.361-.02v.543a4.133 4.133 0 00-1.533.321z" fill="#69c9d0"/><path d="M16.446 7.287h-1.753v9.307c0 .327 0 .643-.108.958-.178.502-.555.958-1.055 1.16-.754.304-1.344.269-2.045-.196a1.923 1.923 0 01-.453-.438c.599.318 1.133.313 1.796.047.502-.202.879-.657 1.055-1.16.111-.315.108-.631.108-.958V6.7h2.422c-.002 0-.028.231.033.587zM19.759 10.065v.517a3.752 3.752 0 01-.821-.298 3.735 3.735 0 01-.979-.748c.091.058.181.111.278.161.619.307 1.224.4 1.522.368z" fill="#69c9d0"/></svg><svg viewBox="0 0 28 28" width="28" height="28" id="tw" x="56" xmlns="http://www.w3.org/2000/svg"><circle cx="14" cy="14" r="12" fill="#1da1f2"/><path d="M20.012 10.916c.006.133.009.267.009.401 0 4.099-3.12 8.826-8.826 8.826a8.781 8.781 0 01-4.755-1.394 6.227 6.227 0 004.593-1.285 3.106 3.106 0 01-2.898-2.154 3.117 3.117 0 001.401-.053 3.104 3.104 0 01-2.488-3.042v-.039c.418.232.897.372 1.405.388a3.101 3.101 0 01-.96-4.142 8.805 8.805 0 006.394 3.241 3.102 3.102 0 015.286-2.829 6.2 6.2 0 001.97-.753 3.116 3.116 0 01-1.364 1.716 6.238 6.238 0 001.782-.488 6.296 6.296 0 01-1.549 1.607z" fill="#fff"/></svg><svg viewBox="0 0 28 28" width="28" height="28" id="yt" x="56" y="28" xmlns="http://www.w3.org/2000/svg"><circle cx="14" cy="14" r="12" fill="red"/><path d="M21.554 14.55c-.023 1.702-.179 3.413-.876 4.044-.269.244-.525.397-1.547.492-1.28.119-3.012.136-4.322.138h-1.622c-1.31-.002-3.043-.019-4.322-.138-1.022-.095-1.278-.248-1.547-.492-.703-.637-.855-2.372-.876-4.088a44.622 44.622 0 01-.001-.968c.019-1.731.168-3.49.877-4.132.269-.244.525-.397 1.547-.492 1.28-.119 3.012-.136 4.322-.138h1.622c1.31.002 3.043.019 4.322.138 1.023.095 1.278.248 1.547.492.697.632.853 2.342.876 4.044.005.366.005.734 0 1.1z" fill="#fff"/><path fill="red" d="M12.518 16.312L16.333 14l-3.815-2.173z"/></svg></svg>