<svg xmlns="http://www.w3.org/2000/svg" width="92" height="92">
    <path fill="#FFF" fill-rule="evenodd" d="M78.523 78.521c-8.686 8.684-20.249 13.478-32.528 13.478s-23.843-4.794-32.528-13.478C4.781 69.838-.014 58.276-.014 46c0-12.277 4.811-23.839 13.481-32.522C22.152 4.794 33.716-.001 45.995-.001s23.842 4.795 32.528 13.479c8.685 8.683 13.48 20.245 13.48 32.522 0 12.276-4.795 23.838-13.48 32.521zM45.995 5.111C23.451 5.111 5.098 23.458 5.098 46c0 22.541 18.332 40.889 40.897 40.889 22.544 0 40.896-18.348 40.896-40.889 0-22.542-18.332-40.889-40.896-40.889zM55 62c-2.209 0-4-1.791-4-4V34c0-2.209 1.791-4 4-4s4 1.791 4 4v24c0 2.209-1.791 4-4 4zm-18 0c-2.209 0-4-1.791-4-4V34c0-2.209 1.791-4 4-4s4 1.791 4 4v24c0 2.209-1.791 4-4 4z" />
</svg>
