<svg xmlns="http://www.w3.org/2000/svg" width="92" height="92">
	<path fill="#FFF" d="M46,86.889C23.44,86.889,5.111,68.541,5.111,46C5.111,23.459,23.46,5.111,46,5.111
		C68.56,5.111,86.889,23.459,86.889,46C86.889,68.541,68.54,86.889,46,86.889z M46,0C33.723,0,22.162,4.794,13.478,13.479
		C4.81,22.162,0,33.724,0,46c0,12.276,4.794,23.839,13.478,32.521C22.162,87.206,33.723,92,46,92s23.838-4.794,32.522-13.479
		C87.206,69.839,92,58.277,92,46c0-12.276-4.794-23.839-13.478-32.521C69.838,4.794,58.277,0,46,0z"/>
	<path fill="#FFF" d="M65.187,43.801L34.52,25.912c-0.777-0.474-1.779-0.474-2.556-0.02
		c-0.797,0.46-1.278,1.298-1.278,2.219v35.778c0,0.921,0.501,1.759,1.278,2.219c0.399,0.22,0.818,0.337,1.278,0.337
		c0.44,0,0.9-0.117,1.298-0.357l30.667-17.889c0.777-0.462,1.257-1.278,1.257-2.198C66.465,45.079,65.964,44.241,65.187,43.801z"/>
</svg>
