<?xml version="1.0" encoding="iso-8859-1"?>
<!-- Generator: Adobe Illustrator 19.2.1, SVG Export Plug-In . SVG Version: 6.00 Build 0)  -->
<svg version="1.1" id="Layer_1" xmlns="http://www.w3.org/2000/svg" xmlns:xlink="http://www.w3.org/1999/xlink" x="0px" y="0px"
	 viewBox="0 0 214 193" style="enable-background:new 0 0 214 193;" xml:space="preserve">
<path style="fill:#E05E36;" d="M207.898,47.607c-4.054-4.026-9.028-6.101-14.796-6.101h-71.389l31.097-30.88
	c1.212-1.204,1.839-2.698,1.839-4.4s-0.627-3.196-1.839-4.4C151.597,0.623,150.093,0,148.379,0s-3.218,0.623-4.43,1.826
	l-37.366,37.106L85.934,18.428c-1.212-1.204-2.717-1.826-4.43-1.826s-3.218,0.623-4.43,1.826c-1.212,1.204-1.839,2.698-1.839,4.4
	s0.627,3.196,1.839,4.4l14.378,14.278H20.898c-5.768,0-10.7,2.034-14.754,6.101C2.09,51.674,0,56.53,0,62.258v101.688
	c0,5.728,2.048,10.625,6.102,14.693c4.054,4.067,9.028,6.06,14.796,6.06h6.762c0,2.283,0.794,4.233,2.424,5.852
	S33.679,193,36.02,193c2.299,0,4.263-0.789,5.935-2.449c1.63-1.619,2.424-3.569,2.424-5.852h124.99c0,2.283,0.794,4.233,2.466,5.852
	c1.63,1.619,3.594,2.449,5.893,2.449s4.263-0.789,5.894-2.449c1.672-1.619,2.466-3.569,2.466-5.852h7.013
	c5.768,0,10.7-2.034,14.796-6.06c4.096-4.026,6.102-8.965,6.102-14.693V62.258C214,56.53,211.952,51.633,207.898,47.607z"/>
<path style="fill:#FFFFFF;" d="M165.181,52.941c-1.338-0.429-2.759-0.73-4.347-0.944c-1.588-0.172-2.675-0.3-3.26-0.343
	c-10.24-0.772-23.573-1.287-39.916-1.631l-21.567-0.257c-6.144,0-13.291,0.086-21.484,0.257c-16.384,0.3-29.676,0.858-39.916,1.631
	c-1.337,0.129-2.424,0.215-3.302,0.343c-1.546,0.215-3.009,0.515-4.305,0.944c-3.804,1.159-7.147,3.261-9.989,6.351
	c-2.215,2.274-4.013,5.922-5.475,10.986c-0.711,2.532-1.212,4.806-1.505,6.909l-0.878,9.097c-0.585,7.295-0.878,13.99-0.878,20.04
	v13.646c0,6.094,0.293,12.745,0.878,19.997c0.293,3.648,0.585,6.694,0.878,9.14l0.334,2.017c0.334,1.674,0.752,3.261,1.212,4.849
	c1.463,5.064,3.26,8.711,5.475,10.986c2.8,3.004,6.353,5.107,10.7,6.265c2.341,0.601,5.225,1.073,8.652,1.416
	c5.852,0.558,17.555,1.03,35.109,1.416c8.777,0.215,16.97,0.343,24.577,0.429l21.525-0.257c16.384-0.3,29.718-0.858,39.958-1.631
	c0.585-0.086,1.672-0.215,3.26-0.386c1.546-0.215,3.009-0.515,4.347-0.901c3.803-1.159,7.147-3.261,9.989-6.351
	c2.173-2.274,4.012-5.922,5.475-10.986c0.418-1.588,0.836-3.218,1.17-4.849l0.334-2.017c0.293-2.446,0.585-5.493,0.878-9.14
	c0.585-7.252,0.878-13.947,0.878-19.997v-13.646c0-6.051-0.293-12.745-0.878-20.04l-0.878-9.097
	c-0.293-2.06-0.794-4.377-1.505-6.909c-1.463-5.064-3.302-8.711-5.475-10.986C172.329,56.203,168.985,54.1,165.181,52.941z"/>
<polyline style="fill:#42A77F;" points="127.94,132.195 118.536,132.195 111.932,153.57 105.203,132.195 95.548,132.195 
	106.875,161.912 116.864,161.912 127.94,132.195 "/>
<polygon style="fill:#42A77F;" points="64.493,132.195 64.493,139.541 73.939,139.541 73.939,161.871 83.176,161.871 83.176,139.5 
	92.622,139.5 92.622,132.153 64.493,132.153 "/>
<path style="fill:#E15E36;" d="M70.302,78.362c-1.296-3.403-3.344-6.018-6.144-7.844c-2.759-1.826-6.395-2.781-10.825-2.781
	c-4.556,0.042-8.276,1.079-11.202,3.071s-5.099,4.732-6.52,8.301c-1.421,3.528-2.09,7.595-2.09,12.286
	c-0.042,7.097,1.421,12.576,4.43,16.436s7.858,5.852,14.504,5.894c4.472-0.041,8.192-0.996,11.118-2.947s5.099-4.649,6.52-8.135
	s2.132-7.554,2.132-12.203C72.225,85.75,71.598,81.724,70.302,78.362z M62.695,99.654c-0.669,2.449-1.756,4.399-3.26,5.852
	c-1.505,1.411-3.553,2.158-6.102,2.2c-3.051-0.042-5.392-0.83-7.022-2.407c-1.63-1.536-2.759-3.611-3.344-6.143
	c-0.627-2.573-0.92-5.354-0.878-8.426c0-3.279,0.293-6.143,0.92-8.633c0.669-2.532,1.755-4.524,3.26-5.977
	c1.505-1.453,3.553-2.2,6.102-2.241c3.051,0.042,5.392,0.913,7.022,2.532c1.63,1.577,2.759,3.694,3.344,6.309
	c0.627,2.615,0.878,5.437,0.836,8.467C63.615,94.383,63.322,97.206,62.695,99.654z"/>
<path style="fill:#E05E36;" d="M83.552,80.811c-0.418-0.54-0.627-0.789-0.669-0.789l-6.019,2.407
	c0.042-0.042,0.334,0.415,0.878,1.328c0.502,0.872,1.045,2.366,1.588,4.441c0.502,2.075,0.794,4.856,0.878,8.384v16.727h7.607
	V96.791c0-2.324,0.376-4.317,1.087-5.977c0.711-1.702,1.588-2.988,2.717-3.86c1.129-0.913,2.257-1.37,3.511-1.37
	c1.421,0.042,2.424,0.581,3.051,1.619c0.585,1.079,0.878,2.573,0.836,4.441v21.666h7.565V95.628c0-2.034,0.418-3.818,1.17-5.313
	c0.752-1.494,1.672-2.656,2.842-3.486c1.087-0.83,2.215-1.204,3.386-1.204c1.421,0.042,2.424,0.581,3.051,1.619
	c0.585,1.079,0.878,2.573,0.836,4.441v21.624h7.565V91.104c0.042-3.445-0.627-6.226-1.964-8.26
	c-1.379-2.034-3.762-3.113-7.189-3.154c-2.09-0.042-4.096,0.457-5.977,1.453c-1.881,0.955-3.427,2.532-4.681,4.732
	c-0.543-1.826-1.505-3.279-2.8-4.441c-1.296-1.121-3.093-1.702-5.35-1.743c-2.299-0.042-4.43,0.54-6.437,1.743
	s-3.595,3.113-4.723,5.769c-0.293-1.577-0.711-2.905-1.212-3.985C84.43,82.139,83.97,81.351,83.552,80.811"/>
<path style="fill:#E15E36;" d="M155.066,106.586c-1.045,0.374-2.257,0.747-3.72,1.079c-1.421,0.374-2.842,0.581-4.18,0.623
	c-1.755-0.042-3.135-0.374-4.138-1.038c-1.045-0.664-1.839-1.577-2.341-2.698c-0.501-1.162-0.794-2.407-0.961-3.818
	c3.929-0.042,7.356-0.623,10.199-1.743c2.884-1.079,5.057-2.49,6.604-4.275s2.341-3.777,2.341-5.935
	c0-1.785-0.376-3.403-1.087-4.814c-0.752-1.411-1.964-2.573-3.594-3.403c-1.672-0.706-3.804-1.121-6.437-1.121
	c-3.051,0-5.81,0.706-8.192,2.075c-2.424,1.37-4.347,3.445-5.768,6.143c-1.379,2.656-2.09,5.977-2.132,9.961
	c0,3.279,0.502,6.101,1.463,8.509c0.961,2.407,2.508,4.317,4.639,5.645c2.132,1.328,4.89,2.034,8.318,2.034
	c2.299-0.042,4.389-0.291,6.27-0.789s3.385-0.996,4.514-1.494c1.129-0.457,1.714-0.747,1.797-0.789l-2.006-4.773
	C156.613,106.005,156.07,106.212,155.066,106.586z M140.27,90.689c0.46-1.743,1.254-3.154,2.382-4.275
	c1.045-1.162,2.55-1.785,4.472-1.785c1.254,0.042,2.257,0.415,3.009,1.162s1.129,1.785,1.17,3.113
	c0.042,1.079-0.376,2.117-1.17,3.154c-0.794,1.079-2.048,1.951-3.762,2.698c-1.756,0.747-4.013,1.204-6.813,1.328
	C139.56,94.217,139.811,92.432,140.27,90.689z"/>
<path style="fill:#FFFFFF;" d="M190.176,94.425c0,2.283,0.794,4.275,2.466,5.852c1.63,1.619,3.595,2.449,5.893,2.449
	s4.305-0.789,5.893-2.449c1.63-1.619,2.466-3.569,2.466-5.852s-0.794-4.275-2.466-5.852c-1.63-1.619-3.595-2.449-5.893-2.449
	s-4.305,0.789-5.893,2.449C190.97,90.191,190.176,92.142,190.176,94.425z"/>
<path style="fill:#FFFFFF;" d="M192.642,137.632c1.63,1.619,3.595,2.449,5.893,2.449s4.305-0.789,5.893-2.449
	c1.63-1.619,2.466-3.569,2.466-5.852s-0.794-4.275-2.466-5.852c-1.63-1.619-3.595-2.449-5.893-2.449s-4.305,0.789-5.893,2.449
	c-1.63,1.619-2.466,3.569-2.466,5.852S190.97,136.055,192.642,137.632z"/>
</svg>
