<?xml version="1.0" encoding="iso-8859-1"?>
<!-- Generator: Adobe Illustrator 19.2.1, SVG Export Plug-In . SVG Version: 6.00 Build 0)  -->
<svg version="1.1" id="Layer_1" xmlns="http://www.w3.org/2000/svg" xmlns:xlink="http://www.w3.org/1999/xlink" x="0px" y="0px"
	 viewBox="0 0 220 65" style="enable-background:new 0 0 220 65;" xml:space="preserve">
<path style="fill:#E05E36;" d="M102.534,23.1c-8.227,0-12.945,5.633-12.945,15.455c0,9.697,4.171,14.614,12.398,14.614
	c8.2,0,12.903-5.541,12.903-15.203C114.89,28.24,110.617,23.1,102.534,23.1z M102.576,48.304c-4.539,0-6.563-3.149-6.563-10.212
	c0-6.815,1.941-10.128,5.932-10.128c4.477,0,6.563,3.312,6.563,10.422C108.507,45.06,106.567,48.304,102.576,48.304z"/>
<path style="fill:#E05E36;" d="M142.51,30.661c-2.773,0-5.076,1.164-6.585,3.301c-1.026-2.192-2.781-3.301-5.228-3.301
	c-2.952,0-5.383,1.365-6.849,3.794c-0.675-2.215-1.82-3.381-1.878-3.438l-0.233-0.233l-4.746,1.901l0.469,0.531
	c0.019,0.022,1.932,2.267,1.932,8.615v11.086h5.794V41.999c0-4.131,2.075-6.599,4.082-6.599c0.903,0,1.938,0.377,1.938,3.323v14.194
	h5.752V41.243c0-3.762,2.439-5.843,4.124-5.843c0.903,0,1.938,0.377,1.938,3.323v14.194h5.751v-14.53
	C148.77,33.188,146.723,30.661,142.51,30.661z"/>
<path style="fill:#E05E36;" d="M168.293,47.334c-0.034,0.014-3.466,1.432-5.778,1.432c-2.387,0-3.666-1.165-4.094-3.76
	c6.984-0.248,11.994-3.58,11.994-8.048c0-4.109-2.742-6.465-7.521-6.465c-6.459,0-10.633,4.698-10.633,11.968
	c0,7.032,3.313,10.75,9.582,10.75c4.32,0,7.984-1.909,8.138-1.99l0.406-0.214l-1.634-3.863L168.293,47.334z M162.515,34.77
	c1.299,0,2.106,0.838,2.106,2.188c0,1.802-1.977,3.697-6.378,4.007C158.401,38.02,159.302,34.77,162.515,34.77z"/>
<path style="fill:#42A77E;" d="M178.235,46.036c-2.21,0-3.695,1.5-3.695,3.734c0,2.125,1.468,3.608,3.569,3.608
	c2.185,0,3.654-1.484,3.654-3.692C181.763,47.469,180.378,46.036,178.235,46.036z"/>
<path style="fill:#42A77E;" d="M197.167,47.815l-0.516,0.18c-0.016,0.006-1.619,0.56-3.114,0.56c-1.014,0-1.391-0.331-1.391-1.222
	V35.399h4.503l0.762-4.403h-5.265v-5.921l-4.889,1.091l-0.826,4.83h-3.862v4.403h3.784v12.48c0,3.356,2.089,5.205,5.882,5.205
	c1.697,0,5.882-0.584,5.882-1.466L197.167,47.815z"/>
<path style="fill:#42A77E;" d="M213.492,30.995l-2.629,10.196c-0.498,2.048-0.839,3.795-1.134,5.378l-0.016,0.084h-0.293
	l-0.014-0.086c-0.305-1.835-0.69-3.593-1.175-5.375l-2.755-10.197h-6.72l7.414,21.922h6.249L220,30.995H213.492z"/>
<path style="fill:#E05E36;" d="M69.947,16.033c-1.364-1.356-3.037-2.055-4.978-2.055H40.95l10.463-10.4
	c0.408-0.405,0.619-0.909,0.619-1.482s-0.212-1.076-0.62-1.481C51.005,0.21,50.498,0,49.922,0s-1.083,0.21-1.491,0.615
	L35.859,13.112l-6.947-6.905c-0.408-0.405-0.914-0.615-1.491-0.615s-1.083,0.21-1.491,0.615c-0.408,0.405-0.619,0.909-0.619,1.482
	s0.211,1.076,0.619,1.482l4.838,4.809H7.031c-1.941,0-3.6,0.685-4.964,2.055C0.703,17.403,0,19.039,0,20.968v34.247
	c0,1.929,0.689,3.578,2.053,4.948s3.037,2.041,4.978,2.041h2.275c0,0.769,0.267,1.426,0.816,1.971C10.67,64.72,11.331,65,12.119,65
	c0.773,0,1.434-0.266,1.997-0.825c0.548-0.545,0.816-1.202,0.816-1.971h42.053c0,0.769,0.267,1.426,0.83,1.971
	C58.362,64.72,59.023,65,59.797,65s1.434-0.266,1.983-0.825c0.563-0.545,0.83-1.202,0.83-1.971h2.36c1.941,0,3.6-0.685,4.978-2.041
	C71.325,58.808,72,57.144,72,55.215V20.968C72,19.039,71.311,17.389,69.947,16.033z"/>
<path style="fill:#FFFFFF;" d="M55.575,17.83c-0.45-0.145-0.928-0.246-1.463-0.318c-0.534-0.058-0.9-0.101-1.097-0.116
	c-3.445-0.26-7.931-0.434-13.43-0.549L32.33,16.76c-2.067,0-4.472,0.029-7.228,0.087c-5.513,0.101-9.984,0.289-13.43,0.549
	c-0.45,0.043-0.816,0.072-1.111,0.116c-0.52,0.072-1.012,0.173-1.448,0.318c-1.28,0.39-2.405,1.098-3.361,2.139
	c-0.745,0.766-1.35,1.994-1.842,3.7c-0.239,0.853-0.408,1.619-0.506,2.327L3.108,29.06c-0.197,2.457-0.295,4.711-0.295,6.749v4.596
	c0,2.052,0.098,4.292,0.295,6.735c0.098,1.228,0.197,2.255,0.295,3.078l0.113,0.679c0.113,0.564,0.253,1.098,0.408,1.633
	c0.492,1.705,1.097,2.934,1.842,3.7c0.942,1.012,2.137,1.72,3.6,2.11c0.788,0.202,1.758,0.361,2.911,0.477
	c1.969,0.188,5.906,0.347,11.812,0.477c2.953,0.072,5.709,0.116,8.269,0.145l7.242-0.087c5.513-0.101,9.998-0.289,13.444-0.549
	c0.197-0.029,0.563-0.072,1.097-0.13c0.52-0.072,1.013-0.173,1.463-0.304c1.28-0.39,2.405-1.098,3.361-2.139
	c0.731-0.766,1.35-1.994,1.842-3.7c0.141-0.535,0.281-1.084,0.394-1.633l0.112-0.679c0.098-0.824,0.197-1.85,0.295-3.078
	c0.197-2.442,0.295-4.697,0.295-6.735v-4.596c0-2.038-0.098-4.292-0.295-6.749l-0.295-3.064c-0.098-0.694-0.267-1.474-0.506-2.327
	c-0.492-1.705-1.111-2.934-1.842-3.7C57.98,18.928,56.855,18.22,55.575,17.83z"/>
<polyline style="fill:#42A77F;" points="43.045,44.522 39.881,44.522 37.659,51.72 35.395,44.522 32.147,44.522 35.958,54.53 
	39.319,54.53 43.045,44.522 "/>
<polygon style="fill:#42A77F;" points="21.698,44.522 21.698,46.996 24.877,46.996 24.877,54.516 27.984,54.516 27.984,46.982 
	31.163,46.982 31.163,44.508 21.698,44.508 "/>
<path style="fill:#E05E36;" d="M23.653,26.391c-0.436-1.146-1.125-2.027-2.067-2.642c-0.928-0.615-2.152-0.937-3.642-0.937
	c-1.533,0.014-2.784,0.363-3.769,1.034s-1.716,1.594-2.194,2.796c-0.478,1.188-0.703,2.558-0.703,4.138
	c-0.014,2.39,0.478,4.235,1.491,5.535s2.644,1.971,4.88,1.985c1.505-0.014,2.756-0.336,3.741-0.992s1.716-1.566,2.194-2.74
	c0.478-1.174,0.717-2.544,0.717-4.11C24.3,28.88,24.089,27.524,23.653,26.391z M21.094,33.562c-0.225,0.825-0.591,1.482-1.097,1.971
	c-0.506,0.475-1.195,0.727-2.053,0.741c-1.027-0.014-1.814-0.28-2.362-0.811c-0.548-0.517-0.928-1.216-1.125-2.069
	c-0.211-0.867-0.309-1.803-0.295-2.838c0-1.104,0.098-2.069,0.309-2.907c0.225-0.853,0.591-1.524,1.097-2.013
	s1.195-0.741,2.053-0.755c1.027,0.014,1.814,0.307,2.362,0.853c0.548,0.531,0.928,1.244,1.125,2.125
	c0.211,0.881,0.295,1.831,0.281,2.852C21.403,31.787,21.305,32.738,21.094,33.562z"/>
<path style="fill:#E05E36;" d="M28.111,27.216c-0.141-0.182-0.211-0.266-0.225-0.266l-2.025,0.811
	c0.014-0.014,0.112,0.14,0.295,0.447c0.169,0.294,0.352,0.797,0.534,1.496c0.169,0.699,0.267,1.635,0.295,2.824v5.633h2.559v-5.563
	c0-0.783,0.127-1.454,0.366-2.013c0.239-0.573,0.534-1.006,0.914-1.3c0.38-0.308,0.759-0.461,1.181-0.461
	c0.478,0.014,0.816,0.196,1.027,0.545c0.197,0.363,0.295,0.867,0.281,1.496v7.297h2.545v-5.955c0-0.685,0.141-1.286,0.394-1.789
	c0.253-0.503,0.563-0.895,0.956-1.174c0.366-0.28,0.745-0.405,1.139-0.405c0.478,0.014,0.816,0.196,1.027,0.545
	c0.197,0.363,0.295,0.867,0.281,1.496v7.283H42.2v-7.478c0.014-1.16-0.211-2.097-0.661-2.782c-0.464-0.685-1.266-1.048-2.419-1.062
	c-0.703-0.014-1.378,0.154-2.011,0.489c-0.633,0.322-1.153,0.853-1.575,1.594c-0.183-0.615-0.506-1.104-0.942-1.496
	c-0.436-0.377-1.041-0.573-1.8-0.587c-0.773-0.014-1.491,0.182-2.166,0.587c-0.675,0.405-1.209,1.048-1.589,1.943
	c-0.098-0.531-0.239-0.978-0.408-1.342C28.406,27.663,28.252,27.398,28.111,27.216"/>
<path style="fill:#E05E36;" d="M52.172,35.897c-0.352,0.126-0.759,0.252-1.252,0.363c-0.478,0.126-0.956,0.196-1.406,0.21
	c-0.591-0.014-1.055-0.126-1.392-0.349c-0.352-0.224-0.619-0.531-0.788-0.909c-0.169-0.391-0.267-0.811-0.323-1.286
	c1.322-0.014,2.475-0.21,3.431-0.587c0.97-0.363,1.702-0.839,2.222-1.44s0.787-1.272,0.787-1.999c0-0.601-0.127-1.146-0.366-1.621
	c-0.253-0.475-0.661-0.867-1.209-1.146c-0.563-0.238-1.28-0.377-2.166-0.377c-1.027,0-1.955,0.238-2.756,0.699
	c-0.816,0.461-1.463,1.16-1.941,2.069c-0.464,0.895-0.703,2.013-0.717,3.355c0,1.104,0.169,2.055,0.492,2.866
	s0.844,1.454,1.561,1.901c0.717,0.447,1.645,0.685,2.798,0.685c0.773-0.014,1.477-0.098,2.109-0.266s1.139-0.335,1.519-0.503
	c0.38-0.154,0.577-0.252,0.605-0.266l-0.675-1.608C52.692,35.701,52.509,35.771,52.172,35.897z M47.194,30.543
	c0.155-0.587,0.422-1.062,0.802-1.44c0.352-0.391,0.858-0.601,1.505-0.601c0.422,0.014,0.759,0.14,1.013,0.391
	c0.253,0.252,0.38,0.601,0.394,1.048c0.014,0.363-0.127,0.713-0.394,1.062c-0.267,0.363-0.689,0.657-1.266,0.909
	c-0.591,0.252-1.35,0.405-2.292,0.447C46.955,31.731,47.039,31.13,47.194,30.543z"/>
<path style="fill:#FFFFFF;" d="M63.984,31.801c0,0.769,0.267,1.44,0.83,1.971c0.548,0.545,1.209,0.825,1.983,0.825
	s1.448-0.266,1.983-0.825c0.548-0.545,0.83-1.202,0.83-1.971c0-0.769-0.267-1.44-0.83-1.971c-0.548-0.545-1.209-0.825-1.983-0.825
	s-1.448,0.266-1.983,0.825C64.252,30.375,63.984,31.032,63.984,31.801z"/>
<path style="fill:#FFFFFF;" d="M64.814,46.353c0.548,0.545,1.209,0.825,1.983,0.825s1.448-0.266,1.983-0.825
	c0.548-0.545,0.83-1.202,0.83-1.971s-0.267-1.44-0.83-1.971c-0.548-0.545-1.209-0.825-1.983-0.825s-1.448,0.266-1.983,0.825
	c-0.548,0.545-0.83,1.202-0.83,1.971S64.252,45.822,64.814,46.353z"/>
</svg>
