<?xml version="1.0" encoding="iso-8859-1"?>
<!-- Generator: Adobe Illustrator 23.1.0, SVG Export Plug-In . SVG Version: 6.00 Build 0)  -->
<svg version="1.1" xmlns="http://www.w3.org/2000/svg" xmlns:xlink="http://www.w3.org/1999/xlink" x="0px" y="0px"
	 viewBox="0 0 70 80" style="enable-background:new 0 0 70 80;" xml:space="preserve">
<g id="ometv-profiles">
	<path style="fill:#42A77D;" d="M8.33,29.57c0-8.164,6.585-14.814,14.669-14.814s14.67,6.65,14.67,14.814
		c0,8.164-6.585,14.813-14.67,14.813S8.33,37.733,8.33,29.57z M43.398,50.169c0.251-0.261,0.595-0.399,0.939-0.399
		c0.344,0,0.688,0.138,0.939,0.399l16.003,16.161c0.52,0.517,0.52,1.379,0,1.896c-0.512,0.525-1.366,0.525-1.878,0L43.398,52.065
		C42.877,51.537,42.877,50.686,43.398,50.169z M2.996,29.57c0,5.397,2.083,10.469,5.854,14.277c3.771,3.82,8.804,5.923,14.149,5.923
		c4.438,0,8.668-1.451,12.138-4.145l3.001,3.03c-0.939,2.408-0.437,5.261,1.477,7.208l16.014,16.171c1.293,1.314,3,1.966,4.71,1.966
		c1.71,0,3.417-0.652,4.721-1.956c2.592-2.631,2.592-6.904,0-9.535L49.057,46.35c-1.929-1.945-4.764-2.441-7.159-1.492l-3.001-3.031
		c2.667-3.504,4.105-7.775,4.105-12.257c0-5.398-2.083-10.469-5.854-14.289c-3.782-3.808-8.804-5.912-14.149-5.912
		c-5.345,0-10.367,2.104-14.149,5.912C5.079,19.089,2.996,24.172,2.996,29.57z"/>
	<path style="fill:#42A77D;" d="M13.664,28.223v1.347c0,5.198,4.187,9.427,9.335,9.427h1.334v2.693h-1.334
		c-6.614,0-12.002-5.441-12.002-12.12v-1.347H13.664z"/>
</g>
<g id="Layer_1">
</g>
</svg>
