<?xml version="1.0" encoding="iso-8859-1"?>
<!-- Generator: Adobe Illustrator 23.1.0, SVG Export Plug-In . SVG Version: 6.00 Build 0)  -->
<svg version="1.1" xmlns="http://www.w3.org/2000/svg" xmlns:xlink="http://www.w3.org/1999/xlink" x="0px" y="0px"
	 viewBox="0 0 70 80" style="enable-background:new 0 0 70 80;" xml:space="preserve">
<g id="ometv-followers">
	<path style="fill:#42A77D;" d="M59.846,60.409C55.39,55.897,47.26,53.71,35,53.71c-12.261,0-20.39,2.187-24.847,6.699
		C6,64.608,6,69.741,6,73.129v1.619c0,0.883,0.731,1.618,1.611,1.618h54.778c0.88,0,1.611-0.735,1.611-1.618v-1.619
		C64,69.741,64,64.608,59.846,60.409z M58.595,73.669H11.405v-2.697c0.112-2.344,0.582-4.764,2.561-6.763
		c3.345-3.388,10.422-5.105,21.034-5.105c10.612,0,17.689,1.717,21.037,5.107c1.976,1.997,2.446,4.416,2.558,6.76V73.669z"/>
	<path style="fill:#42A77D;" d="M35,50.473c10.662,0,19.333-8.708,19.333-19.419c0-10.71-8.671-19.419-19.333-19.419
		s-19.333,8.71-19.333,19.419C15.667,41.765,24.338,50.473,35,50.473z M35,17.029c7.699,0,13.963,6.291,13.963,14.025
		c0,7.734-6.264,14.026-13.963,14.026s-13.963-6.291-13.963-14.026C21.037,23.32,27.301,17.029,35,17.029z"/>
	<path style="fill:#42A77D;" d="M43.544,38.834l0.95-0.954l-1.899-1.908l-0.949,0.954c-3.665,3.681-9.627,3.681-13.291,0
		l-0.95-0.954l-1.899,1.908l0.949,0.954C31.164,43.564,38.836,43.564,43.544,38.834z"/>
</g>
<g id="Layer_1">
</g>
</svg>
