<?xml version="1.0" encoding="iso-8859-1"?>
<!-- Generator: Adobe Illustrator 23.1.0, SVG Export Plug-In . SVG Version: 6.00 Build 0)  -->
<svg version="1.1" xmlns="http://www.w3.org/2000/svg" xmlns:xlink="http://www.w3.org/1999/xlink" x="0px" y="0px"
	 viewBox="0 0 70 80" style="enable-background:new 0 0 70 80;" xml:space="preserve">
<g id="ometv-photogallery">
	<path style="fill:#42A77D;" d="M59.793,71.82H10.207V28.559h49.586V71.82C59.805,71.82,59.793,71.82,59.793,71.82z M16.405,19.289
		h37.189c1.708,0,3.099,1.388,3.099,3.09H13.306C13.306,20.677,14.698,19.289,16.405,19.289z M22.603,13.109h24.793
		c1.708,0,3.099,1.388,3.099,3.09H19.504C19.504,14.497,20.896,13.109,22.603,13.109z M59.793,22.379c0-3.406-2.783-6.18-6.198-6.18
		c0-3.406-2.783-6.18-6.198-6.18H22.603c-3.415,0-6.198,2.774-6.198,6.18c-3.415,0-6.198,2.775-6.198,6.18
		c-3.415,0-6.198,2.775-6.198,6.18V71.82c0,3.405,2.783,6.18,6.198,6.18h49.586c3.415,0,6.198-2.775,6.198-6.18V28.559
		C65.991,25.154,63.208,22.379,59.793,22.379z"/>
	<path style="fill:#42A77D;" d="M52.045,34.739h-34.09c-0.846,0-1.55,0.702-1.55,1.545v27.81c0,0.843,0.703,1.545,1.55,1.545h4.648
		h3.099h18.595h3.099h4.649c0.846,0,1.549-0.702,1.549-1.545v-27.81C53.595,35.441,52.891,34.739,52.045,34.739z M35,59.459
		c3.277,0,5.748,0.984,7.746,3.09H27.254C29.252,60.443,31.723,59.459,35,59.459z M28.802,50.189c0-3.406,2.783-6.18,6.198-6.18
		c3.415,0,6.198,2.774,6.198,6.18c0,3.405-2.783,6.181-6.198,6.181C31.585,56.37,28.802,53.594,28.802,50.189z M50.496,62.549
		h-3.822c-1.288-1.921-2.748-3.38-4.484-4.394c-0.446-0.266-0.921-0.507-1.404-0.711c2.145-1.702,3.511-4.323,3.511-7.255
		c0-5.105-4.178-9.271-9.297-9.271c-5.12,0-9.298,4.166-9.298,9.271c0,2.932,1.379,5.553,3.511,7.255
		c-0.483,0.204-0.957,0.445-1.404,0.711c-1.735,1.014-3.196,2.473-4.484,4.394h-3.822v-24.72h30.991V62.549z"/>
</g>
<g id="Layer_1">
</g>
</svg>
