<?xml version="1.0" encoding="iso-8859-1"?>
<!-- Generator: Adobe Illustrator 23.1.0, SVG Export Plug-In . SVG Version: 6.00 Build 0)  -->
<svg version="1.1" xmlns="http://www.w3.org/2000/svg" xmlns:xlink="http://www.w3.org/1999/xlink" x="0px" y="0px"
	 viewBox="0 0 70 80" style="enable-background:new 0 0 70 80;" xml:space="preserve">
<g id="ometv-messages">
	<path style="fill:#42A77D;" d="M62.5,11.981h-55c-3.031,0-5.5,2.398-5.5,5.341v37.383c0,2.943,2.469,5.34,5.5,5.34h55
		c3.03,0,5.5-2.397,5.5-5.34V17.321C68,14.379,65.53,11.981,62.5,11.981z M7.5,24.16l16.079,12.49L7.5,52.262V24.16z M8.875,54.704
		L25.74,38.328l5.824,4.524c1.004,0.78,2.22,1.171,3.436,1.171c1.216,0,2.431-0.391,3.436-1.171l5.825-4.524l16.865,16.376H8.875z
		 M62.5,52.263L46.421,36.65L62.5,24.16V52.263z M35,38.683L7.5,17.321h55L35,38.683z"/>
</g>
<g id="Layer_1">
</g>
</svg>
