<?xml version="1.0" encoding="iso-8859-1"?>
<!-- Generator: Adobe Illustrator 23.1.0, SVG Export Plug-In . SVG Version: 6.00 Build 0)  -->
<svg version="1.1" xmlns="http://www.w3.org/2000/svg" xmlns:xlink="http://www.w3.org/1999/xlink" x="0px" y="0px"
	 viewBox="0 0 70 80" style="enable-background:new 0 0 70 80;" xml:space="preserve">
<g id="ometv-talk">
	<path style="fill:#42A77D;" d="M64.162,58.229H5.838V17.871h58.324V58.229z M64.162,12.105H5.838c-3.214,0-5.833,2.589-5.833,5.766
		v40.359c0,3.177,2.619,5.765,5.833,5.765h58.324c3.214,0,5.832-2.588,5.832-5.765V17.871
		C69.995,14.694,67.376,12.105,64.162,12.105z"/>
	<path style="fill:#42A77D;" d="M11.67,23.636h34.995v28.829H11.67V23.636z M10.212,55.347h37.911c0.796,0,1.458-0.655,1.458-1.442
		v-31.71c0-0.788-0.662-1.442-1.458-1.442H10.212c-0.796,0-1.458,0.654-1.458,1.442v31.71C8.754,54.692,9.416,55.347,10.212,55.347z
		"/>
	<path style="fill:#42A77D;" d="M56.872,29.402c0.796,0,1.458,0.654,1.458,1.441c0,0.787-0.662,1.442-1.458,1.442
		c-0.796,0-1.458-0.655-1.458-1.442C55.413,30.056,56.076,29.402,56.872,29.402z M56.872,35.168c2.415,0,4.374-1.937,4.374-4.325
		c0-2.387-1.96-4.324-4.374-4.324s-4.374,1.937-4.374,4.324C52.497,33.23,54.457,35.168,56.872,35.168z"/>
	<path style="fill:#42A77D;" d="M56.872,43.815c0.796,0,1.458,0.654,1.458,1.441c0,0.787-0.662,1.441-1.458,1.441
		c-0.796,0-1.458-0.654-1.458-1.441C55.413,44.47,56.076,43.815,56.872,43.815z M56.872,49.581c2.415,0,4.374-1.937,4.374-4.324
		c0-2.387-1.96-4.324-4.374-4.324s-4.374,1.937-4.374,4.324C52.497,47.644,54.457,49.581,56.872,49.581z"/>
	<path style="fill:#42A77D;" d="M50.129,2.511l-1.505-2.478L33.632,8.929L21.58,0l-1.741,2.31l12.826,9.501
		c0.251,0.193,0.572,0.294,0.878,0.294c0.251,0,0.513-0.066,0.741-0.202L50.129,2.511z"/>
</g>
<g id="Layer_1">
</g>
</svg>
