<?xml version="1.0" encoding="iso-8859-1"?>
<!-- Generator: Adobe Illustrator 23.1.0, SVG Export Plug-In . SVG Version: 6.00 Build 0)  -->
<svg version="1.1" xmlns="http://www.w3.org/2000/svg" xmlns:xlink="http://www.w3.org/1999/xlink" x="0px" y="0px"
	 viewBox="0 0 70 80" style="enable-background:new 0 0 70 80;" xml:space="preserve">
<g id="ometv-signup">
	<path style="fill:#42A77D;" d="M43.743,68.25c-11.254,0-20.414-9.161-20.414-20.416c0-11.255,9.16-20.417,20.414-20.417
		c11.254,0,20.413,9.162,20.413,20.417C64.156,59.088,54.996,68.25,43.743,68.25z M37.91,14.292c0-0.796,0.662-1.458,1.458-1.458
		h8.749c0.796,0,1.458,0.662,1.458,1.458c0,0.796-0.662,1.458-1.458,1.458h-8.749C38.572,15.75,37.91,15.087,37.91,14.292z
		 M63.404,30.436l3.782-4.878l-4.59-3.588l-3.531,4.536c-3.657-2.633-7.894-4.272-12.406-4.762v-3.078h1.458
		c2.415,0,4.374-1.96,4.374-4.375c0-2.415-1.96-4.375-4.374-4.375h-8.749c-2.415,0-4.374,1.96-4.374,4.375
		c0,2.415,1.96,4.375,4.374,4.375h1.458v3.078c-5.899,0.635-11.379,3.257-15.628,7.517c-4.966,4.967-7.69,11.566-7.69,18.572
		c0,7.005,2.732,13.603,7.69,18.558c4.943,4.956,11.539,7.692,18.556,7.692c7.005,0,13.601-2.736,18.544-7.692
		c4.966-4.955,7.702-11.553,7.702-18.558C70.001,41.349,67.664,35.234,63.404,30.436z"/>
	<rect x="-0.001" y="42" style="fill:#42A77D;" width="14.581" height="2.917"/>
	<rect x="-0.001" y="50.75" style="fill:#42A77D;" width="14.581" height="2.917"/>
	<rect x="2.916" y="33.25" style="fill:#42A77D;" width="14.581" height="2.917"/>
	<rect x="8.748" y="24.5" style="fill:#42A77D;" width="14.581" height="2.917"/>
	<rect x="2.916" y="59.5" style="fill:#42A77D;" width="14.581" height="2.917"/>
	<rect x="8.748" y="68.25" style="fill:#42A77D;" width="14.581" height="2.917"/>
	<path style="fill:#42A77D;" d="M43.743,50.75c-1.607,0-2.916-1.31-2.916-2.916c0-0.204,0.023-0.388,0.059-0.557
		c0-0.011,0-0.011,0.009-0.024l2.861-13.98l2.846,13.98c0,0.013,0.012,0.024,0.012,0.044c0.035,0.195,0.058,0.376,0.058,0.537
		C46.659,49.439,45.349,50.75,43.743,50.75z M49.438,46.578l-2.837-13.91c-0.271-1.344-1.467-2.335-2.846-2.335
		c-1.379,0-2.587,0.991-2.861,2.335l-2.87,13.993c-0.079,0.375-0.125,0.749-0.125,1.172c0,3.214,2.622,5.833,5.832,5.833
		c3.225,0,5.832-2.619,5.832-5.833c0-0.365-0.035-0.752-0.114-1.161C49.45,46.637,49.45,46.614,49.438,46.578z"/>
</g>
<g id="Layer_1">
</g>
</svg>
