<?xml version="1.0" encoding="utf-8"?>
<!-- Generator: Adobe Illustrator 23.1.0, SVG Export Plug-In . SVG Version: 6.00 Build 0)  -->
<svg version="1.1" id="Layer_1" xmlns="http://www.w3.org/2000/svg" xmlns:xlink="http://www.w3.org/1999/xlink" x="0px" y="0px"
	 viewBox="0 0 337 684" style="enable-background:new 0 0 337 684;" xml:space="preserve">
<style type="text/css">
	.st0{fill:#FFFFFF;}
	.st1{opacity:0.35;fill:#FFFFFF;enable-background:new    ;}
	.st2{fill:#E6E6E6;}
</style>
<g id="iphone-videochat-ometv">
	<path class="st0" d="M334.7,143.6L334.7,143.6V44.8c0-24.7-20-44.7-44.7-44.7H47c-24.7,0-44.7,20-44.7,44.7v38.8
		C1,83.7,0,84.7,0,86v16.5c0,1.3,1,2.3,2.3,2.3v23.3c-1.3,0-2.3,1.1-2.3,2.3v38.4c0,1.3,1,2.3,2.3,2.3v14.2c-1.3,0-2.3,1.1-2.3,2.3
		v38.3c0,1.3,1,2.3,2.3,2.3v410.9c0,24.7,20,44.7,44.7,44.7h243c24.7,0,44.7-20,44.7-44.7V211.9l0,0c1.3,0,2.3-1.1,2.3-2.3V146
		C337,144.7,336,143.6,334.7,143.6z M318.9,638.2c0,16.4-13.4,29.8-29.8,29.8H47.8C31.4,668,18,654.6,18,638.2V48.3h300.9V638.2
		L318.9,638.2z"/>
	<path d="M18.1,48.3v-2.4C18.1,29.4,31.5,16,48,16h40.6c3.4,0,6.3,2.6,6.6,6.1l0.3,4c0.3,3.3,1.9,6.2,4.5,8.2
		c3,2.3,6.8,3.5,10.5,3.5l58,0.2l58.1-0.1c3.8,0,7.5-1.3,10.5-3.5c2.6-1.9,4.3-4.9,4.5-8.1l0.4-4.1c0.3-3.4,3.1-6,6.6-6h40.6
		c16.5,0,29.9,13.4,29.9,29.9v2.4L18.1,48.3L18.1,48.3z"/>
	<path class="st0" d="M252.2,33.6h-0.8c-0.4,0-0.8,0.3-0.8,0.8V36c0,0.5,0.4,0.8,0.8,0.8h0.8c0.4,0,0.8-0.3,0.8-0.8v-1.6
		C253,34,252.6,33.6,252.2,33.6z"/>
	<path class="st0" d="M255.9,32h-0.8c-0.4,0-0.8,0.3-0.8,0.8V36c0,0.5,0.4,0.8,0.8,0.8h0.8c0.5,0,0.8-0.3,0.8-0.8v-3.2
		C256.7,32.4,256.3,32,255.9,32z"/>
	<path class="st0" d="M259.5,30.2h-0.8c-0.5,0-0.8,0.3-0.8,0.8v5c0,0.5,0.4,0.8,0.8,0.8h0.8c0.5,0,0.8-0.3,0.8-0.8v-5
		C260.4,30.5,260,30.2,259.5,30.2z"/>
	<path class="st0" d="M263.3,28.3h-0.8c-0.5,0-0.8,0.4-0.8,0.8V36c0,0.4,0.4,0.8,0.8,0.8h0.8c0.5,0,0.8-0.3,0.8-0.8v-6.8
		C264,28.7,263.7,28.3,263.3,28.3z"/>
	<path class="st0" d="M274,28.1c-2.3,0-4.4,0.9-6,2.4c-0.1,0.1-0.1,0.3,0,0.3l0.9,0.9c0.1,0.1,0.3,0.1,0.4,0
		c1.3-1.2,2.9-1.9,4.7-1.9c1.8,0,3.5,0.7,4.7,1.9c0.1,0.1,0.3,0.1,0.4,0l0.9-0.9c0.1-0.1,0.1-0.3,0-0.3
		C278.5,29,276.4,28.1,274,28.1z"/>
	<path class="st0" d="M274,31.1c-1.5,0-2.9,0.5-3.9,1.5c-0.1,0.1-0.1,0.3,0,0.3l0.9,0.9c0.1,0.1,0.3,0.1,0.4,0c0.7-0.6,1.6-1,2.6-1
		s1.9,0.4,2.6,1c0.1,0.1,0.3,0.1,0.4,0l0.9-0.9c0.1-0.1,0.1-0.3,0-0.3C276.9,31.6,275.5,31.1,274,31.1z"/>
	<path class="st0" d="M274,34.1c-0.6,0-1.3,0.3-1.8,0.7c-0.1,0.1-0.1,0.3,0,0.3l1.6,1.6c0.1,0.1,0.3,0.1,0.4,0l1.6-1.6
		c0.1-0.1,0.1-0.3,0-0.3C275.3,34.3,274.7,34.1,274,34.1z"/>
	<path class="st0" d="M298.8,29.7h-12.1c-0.6,0-1,0.5-1,1v3.7c0,0.6,0.5,1,1,1h12.1c0.6,0,1-0.4,1-1v-3.7
		C299.9,30.1,299.4,29.7,298.8,29.7z"/>
	<path class="st0" d="M302.2,31v3.1c0.6-0.3,1-0.9,1-1.6C303.3,31.9,302.9,31.3,302.2,31z"/>
	<path class="st0" d="M53.2,28.5c-1.8,0-3,1.2-3,2.8c0,1.6,1.2,2.7,2.7,2.7c1,0,1.7-0.5,2.1-1.2h0.1c0,1.9-0.7,3-1.9,3
		c-0.7,0-1.3-0.4-1.5-1h-1.5c0.3,1.3,1.4,2.2,2.8,2.2c2,0,3.3-1.6,3.3-4.3C56.5,30,55.2,28.5,53.2,28.5z M53.2,32.9
		c-1,0-1.6-0.7-1.6-1.6c0-0.9,0.7-1.6,1.6-1.6c0.9,0,1.6,0.7,1.6,1.7C54.8,32.2,54.2,32.9,53.2,32.9z"/>
	<ellipse class="st0" cx="58.9" cy="34.8" rx="0.9" ry="0.9"/>
	<path class="st0" d="M58.9,29.8c-0.5,0-0.9,0.4-0.9,0.9s0.3,0.9,0.9,0.9c0.5,0,0.9-0.4,0.9-0.9C59.8,30.2,59.5,29.8,58.9,29.8z"/>
	<path class="st0" d="M66.7,28.7h-2.1c-1.1,1.7-2.3,3.5-3.3,5.4v1.2h4v1.6h1.4v-1.6h1.1V34h-1.1V28.7z M65.3,34.1h-2.7v0
		c0.8-1.3,1.8-2.9,2.6-4.2h0.1V34.1L65.3,34.1z"/>
	<polygon class="st0" points="68.9,30.2 68.9,31.6 70.9,30.2 71,30.2 71,36.8 72.5,36.8 72.5,28.7 71.1,28.7 	"/>
	<path class="st1" d="M299.3,28.1h-13.1c-1.1,0-2.1,1-2.1,2.1v4.7c0,1.2,1,2.1,2.1,2.1h13.1c1.1,0,2.1-0.9,2.1-2.1v-4.7
		C301.4,29,300.5,28.1,299.3,28.1z M300.8,34.9c0,0.8-0.6,1.4-1.5,1.4h-13.1c-0.8,0-1.5-0.7-1.5-1.4v-4.8c0-0.8,0.6-1.5,1.5-1.5
		h13.1c0.8,0,1.5,0.6,1.5,1.5V34.9z"/>
	<path class="st2" d="M290.7,6.3H46.3C26.1,6.3,9.7,22.7,9.7,42.9v598.2c0,20.2,16.4,36.6,36.6,36.6h244.4
		c20.2,0,36.6-16.4,36.6-36.6V42.9C327.3,22.7,310.9,6.3,290.7,6.3z M326.4,641.1c0,19.7-16,35.7-35.6,35.7H46.3
		c-19.6,0-35.7-16-35.7-35.7V42.9c0-19.7,16-35.7,35.7-35.7h244.4c19.6,0,35.6,16,35.6,35.7L326.4,641.1L326.4,641.1z"/>
	<path class="st2" d="M334.7,62.3v-4.1h-4.5V42.9c0-21.8-17.7-39.5-39.5-39.5h-13.1V0.2h-4.1v3.3H46.3C24.5,3.5,6.8,21.2,6.8,43
		v15.3H2.3v4.1h4.6V622H2.3v4.1h4.6v15c0,21.8,17.7,39.5,39.5,39.5h14.5v3.3h4.1v-3.3h225.8c21.8,0,39.5-17.7,39.5-39.5v-14.9h4.5
		v-4.1h-4.5V62.3H334.7z M329.2,641.1c0,21.2-17.3,38.5-38.5,38.5H64.9l0,0h-4.1l0,0H46.3c-21.2,0-38.5-17.3-38.5-38.5v-15l0,0V622
		l0,0V62.3l0,0v-4.1l0,0V42.9c0-21.2,17.3-38.5,38.5-38.5h227.2h4.1h13.1c21.2,0,38.5,17.3,38.5,38.5V641.1L329.2,641.1z"/>
	<path class="st2" d="M186.4,22h-35.2c-1.8,0-3.3,1.5-3.3,3.3l0,0c0,1.8,1.5,3.3,3.3,3.3h35.2c1.8,0,3.3-1.5,3.3-3.3l0,0
		C189.7,23.5,188.3,22,186.4,22z"/>
	<path class="st2" d="M204.7,20.2c-2.8,0-5.1,2.3-5.1,5.1s2.3,5.1,5.1,5.1s5.1-2.3,5.1-5.1S207.6,20.2,204.7,20.2z"/>
</g>
</svg>
